<?xml version="1.0" encoding="UTF-8"?>
<svg width="18px" height="18px" viewBox="0 0 18 18" version="1.1" xmlns="http://www.w3.org/2000/svg">
    <g stroke="none" stroke-width="1" fill="none" fill-rule="evenodd">
        <path d="M17,9 C17,4.58172178 13.4182782,1 9,1 C4.58172178,1 1,4.58172178 1,9 C1,13.4182782 4.58172178,17 9,17 C13.4182782,17 17,13.4182782 17,9 Z" stroke="#1877F2" stroke-width="2"/>
        <path d="M12.6666667,9.33333333 L9.83333333,9.33333333 L9.83333333,16 L7.66666667,16 L7.66666667,9.33333333 L5.33333333,9.33333333 L5.33333333,7.16666667 L7.66666667,7.16666667 L7.66666667,5.57583333 C7.66666667,3.71166667 8.92583333,2 11.7925,2 L13.6666667,2 L13.6666667,4.48166667 L12.4075,4.48166667 C11.4925,4.48166667 11.3333333,4.85416667 11.3333333,5.47833333 L11.3333333,7.16666667 L13.6666667,7.16666667 L12.6666667,9.33333333 Z" fill="#1877F2"/>
    </g>
</svg> 